/* XPM */
static char * my_xpm[] = {
"100 100 8 1",
"A	c #F4F4F4",
"B	c #505050",
"C	c #6060B0",
"D	c #8080B0",
"E	c #7070B0",
"F	c #B0B0B0",
"G	c #808080",
"H	c #600000",
"AAAAAAAAAAAAAAAAAAAAAAAAAAAAAAAAAAAAAAAAAAAAAAAAAAAAAAAAAAAAAAAAAAAAAAAAAAAAAAAAAAAAAAAAAAAAAAAAAAAA",
"BBBBBBBBBBBBBBBBBBBBBBBBBBBBBBBBBBBBBBBBBBBBBBBBBBBBBBBBBBBBBBBBBBBBBBBBBBBBBBBBBBBBBBBBBBBBBBBBBBBA",
"BBBBBBBBBBBBBBBBBBBBBBBBBBBBBBBBBBBBBBBBBBBBBBBBBBBBBBBBBBBBBBBBBBBBBBBBBBBBBBBBBBBBBBBBBBBBBBBBBBBA",
"BBBBBBBBBBBBBBBBBBBBBBBBBBBBBBBBBBBBBBBBBBBBBBBBBBBBBBBBBBBBBBBBBBBBBBBBBBBBBBBBBBBBBBBBBBBBBBBBBBBA",
"BBBBBBBBBBBBBBBBBBBBBBBBBBBBBBBBBBBBBBBBBBBBBBBBBBBBBBBBBBBBBBBBBBBBBBBBBBBBBBBBBBBBBBBBBBBBBBBBBBBA",
"BBBBBBBBBBBBBBBBBBBBBBBBBBBBBBBBBBBBBBBBBBBBBBBBBBBBBBBBBBBBBBBBBBBBBBBBBBBBBBBBBBBBBBBBBBBBBBBBBBBA",
"BBBBBBBBBBBBBBBBBBBBBBBBBBBBBBBBBBBBBBBBBBBBBBBBBBBBBBBBBBBBBBBBBBBBBBBBBBBBBBBBBBBBBBBBBBBBBBBBBBBA",
"BBBBBBBBBBBBBBBBBBBBBBBBBBBBBBBBBBBBBBBBBBBBBBBBBBBBBBBBBBBBBBBBBBBBBBBBBBBBBBBBBBBBBBBBBBBBBBBBBBBA",
"BBBBBBBBBBBBBBBBBBBBBBBBBBBBBBBBBBBBBBBBBBBBBBBBBBBBBBBBBBBBBBBBBBBBBBBBBBBBBBBBBBBBBBBBBBBBBBBBBBBA",
"BBBBBBBBBBBBBBBBBBBBBBBBBBBBBBBBBBBBBBBBBBBBBBBBBBBBBBBBBBBBBBBBBBBBBBBBBBBBBBBBBBBBBBBBBBBBBBBBBBBA",
"BBBBBBBBBBBBBBBBBBBBBBBBBBBBBBBBBBBBBBBBBBBBBBBBBBBBBBBBBBBBBBBBBBBBBBBBBBBBBBBBBBBBBBBBBBBBBBBBBBBA",
"BBBBBBBBBBBBBBBBBBBBBBBBBBBBBBBBBBBBBBBBBBBBBBBBBBBBBBBBBBBBBBBBBBBBBBBBBBBBBBBBBBBBBBBBBBBBBBBBBBBA",
"BBBBBBBBBBBBBBBBBBBBBBBBBBBBBBBBBBBBBBBBBBBBBBBBBBBBBBBBBBBBBBBBBBBBBBBBBBBBBBBBBBBBBBBBBBBBBBBBBBBA",
"BBBBBBBBBBBBBBBBBBBBBBBBBBBBBBBBBBBBBBBBBBBBBBBBBBBBBBBBBBBBBBBBBBBBBBBBBBBBBBBBBBBBBBBBBBBBBBBBBBBA",
"BBBBBBBBBBBBBBBBBBBBBBBBBBBBBBBBBBBBBBBBBBBBBBBBBBBBBBBBBBBBBBBBBBBBBBBBBBBBBBBBBBBBBBBBBBBBBBBBBBBA",
"BBBBBBBBBBBBBBBBBBBBBBBBBBBBBBBBBBBBBBBBBBBBBBBBBBBBBBBBBBBBBBBBBBBBBBBBBBBBBBBBBBBBBBBBBBBBBBBBBBBA",
"BBBBBBBBBBBBBBBBBBBBBBBBBBBBBBBBBBBBBBBBBBBBBBBBBBBBBBBBBBBBBBBBBBBBBBBBBBBBBBBBBBBBBBBBBBBBBBBBBBBA",
"BBBBBBBBBBBBBBBBBBBBBBBBBBBBBBBBBBBBBBBBBBBBBBBBBBBBBBBBBBBBBBBBBBBBBBBBBBBBBBBBBBBBBBBBBBBBBBBBBBBA",
"BBBBBBBBBBBBBBBBBBBBBBBBBBBBBBBBBBBBBBBBBBBBBBBBBBBBBBBBBBBBBBBBBBBBBBBBBBBBBBBBBBBBBBBBBBBBBBBBBBBA",
"BBBBBBBBBBBBBBBBBBBBBBBBBBBBBBBBBBBBBBBBBBBBBBBBBBBBBBBBBBBBBBBBBBBBBBBBBBBBBBBBBBBBBBBBBBBBBBBBBBBA",
"BBBBBBBBBBBBBBBBAAAAABBAAAAABBBBBBBBBBBBBBBBBBBBBBBBBBBBBBBBBBBAABABBBBBBBBBBBBBBBBBBBBBBBBBBBBBBBBA",
"BBBBBBBBBBBBBBBBBAAAABBBAABBBBBBBBBBBBBBBBBBBBBBBBBBBBBBBBBBBBBAABABBBBBBBBBBBBBBBBBBBBBBBBBBBBBBBBA",
"BBBBBBBBBBBBBBABAAAAABBAAABBAABBBBBBBBBBBBBBBBBBBBBBBBBBBAAAAAAAAAAAAABBBBBBBBBBBBBBBBBBBBBBBBBBBBBA",
"BBBBBBBBBBBBBBAAAAAAAABBBAAAAABBBBBBBBBBBBBBBBBBBBBBBBBBAAAAAAAAAAAAAAAABBBBBBBBBBBBBBBBBBBBBBBBBBBA",
"BBBBBBBBBBBBBBBBBBAAAABBBAAAAABBBBBBBBBBBBBBBBBBBBBBBBBBAAAAAAAAAAAAAAAABBBBBBBBBBBBBBBBBBBBBBBBBBBA",
"BBBBBBBBBBBBBBBBBAAAAAAAAAAABABBBBBBBBBBBBBBBBBBBBBBBBBBAAAAAAAAAAAAAAAABBBBBBBBBBBBBBBBBBBBBBBBBBBA",
"BBBBBBBBBBBBBBABAAAAAAAAAAAABBBBBBBBBBBBBBBBBBBBBBBBBBBBAAAAAAABBAAAAAAABBBBBBBBBBBBBBBBBBBBBBBBBBBA",
"BBBBBBBBBBBBBBAAAAAAAAAAAAAABBBBBBBBBBBBBBBBBBBBBBBBBBBBAAAAAAABBAAAAAAABBBBBBBBBBBBBBBBBBBBBBBBBBBA",
"BBBBBBBBBBBBBBAAAAAAAAAAAAAABBBBBBBBBBBBBBBBBBBBBBBBBBBBAAAAABAAAABAAAAABBBBBBBBBBBBBBBBBBBBBBBBBBBA",
"BBBBBBBBBBBBBBAAAAAAAAAAAAAAAABBBBBBBBBBBBBBBBBBBBBBBBBBAAAAABBBBBBAAABBBBBBBBBBBBBBBBBBBBBBBBBBBBBA",
"BBBBBBBBBBBBBBABAAAAAAAAAAAAAAAAAAAABBBBBBBBBBBBBBBBAAAAAAAAABBBBBBAAAAAAAAABBBBBBBBBBBBBBBBBBBBBBBA",
"BBBBBBBBBBBBBBBBBAAAAAAAAAAAAAAAAAAABBBBBBBBBBBBBBBBAAAAAAAAAAAAAAAAAAAAAAAABBBBBBBBBBBBBBBBBBBBBBBA",
"BBBBBBBBBBBBBBABAAAAAAAAAAAAAAAAAAAABBBBBBBBBBBBBBBBAAAAAAAAAAAAAAAAAAAAAAAABBBBBBBBBBBBBBBBBBBBBBBA",
"BBBBBBBBBBBBBBAAAAAAAAAAAAAAAAAAAAAABBBBBBBBBBBBBBBBAAAAAAAAAAAAAAAAAAAAAAAABBBBBBBBBBBBBBBBBBBBBBBA",
"BBBBBBBBBBBBBBBBBBBBBBAAAAAABBBBBBBBBBBBBBBBBBBBBBBBBBBBAAAAAAAAAAAAAAAABBBBBBBBBBBBBBBBBBBBBBBBBBBA",
"BBBBBBBBBBBBBBBBBBBBBBAAAAAABBBBBBBBBBBBBBBBBBBBBBBBBBBBBBAAAAAAAAAAAABBBBBBBBBBBBBBBBBBBBBBBBBBBBBA",
"BBBBBBBBBBBBBBBBBBBBBBAAAAAAABBBBBBBBBBBBBBBBBBBBBBBBBBBBBAAAAAAAAAAAABBBBBBBBBBBBBBBBBBBBBBBBBBBBBA",
"BBBBBBBBBBBBBBBBBAABBBAAAAAAABBBBBBBBBBBBBBBBBBBBBBBBBBBAAAAAAAAAAAAAABBBBBBBBBBBBBBBBBBBBBBBBBBBBBA",
"BBBBBBBBBBBBBBBBBAABBBAAAAAAAABBBBBBBBBBBBBBBBBBBBBBBBBBAAAAAAAAAAAAAAABBBBBBBBBBBBBBBBBBBBBBBBBBBBA",
"BBBBBBBBBBBBBBBBBAABBBAAAAAAAABBBBBBBBBBBBBBBBBBBBBBBBBBBBAAAAAAAAAAAABBBBBBBBBBBBBBBBBBBBBBBBBBBBBA",
"BBBBBBBBBBBBBBAAAAAAAAAAAAAAABBBBBBBBBBBBBBBBBBBBBBBBBBBBBAAAAAAAAAAAABBBBBBBBBBBBBBBBBBBBBBBBBBBBBA",
"BBBBBBBBBBBBBBAAAAAAAAAAAABBBBBBBBBBBBBBBBBBBBBBBBBBBBBBAAAABAAAAABBAAAABBBBBBBBBBBBBBBBBBBBBBBBBBBA",
"BBBBBBBBBBBBBBAAAAAAAAAAAABBBBBBBBBBBBBBBBBBBBBBBBBBBBBBBBBBBBAAAABBBBBBBBBBBBBBBBBBBBBBBBBBBBBBBBBA",
"BBBBBBBBBBBBBBAAAAAAAAAAAABBBBBBBBBBBBBBBBBBBBBBBBBBBBBBBBBBBBAAAABBBBBBBBBBBBBBBBBBBBBBBBBBBBBBBBBA",
"BBBBBBBBBBBBBBBBBBBBBBBBBBBBBBBBBBBBBBBBBBBBBBBBBBBBBBBBBBBBBBBBBBBBBBBBBBBBBBBBBBBBBBBBBBBBBBBBBBBA",
"BBBBBBBBBBBBBBBBBBBBBBBBBBBBBBBBBBBBBBBBBBBBBBBBBBBBBBBBBBBBBBBBBBBBBBBBBBBBBBBBBBBBBBBBBBBBBBBBBBBA",
"BBBBBBBBBBBBBBBBBBBBBBBBBBBBBBBBBBBBBBBBBBBBBBBBBBBBBBBBBBBBBBBBBBBBBBBBBBBBBBBBBBBBBBBBBBBBBBBBBBBA",
"BBBBBBBBBBBBBBBBBBBBBBBBBBBBBBBBBBBBBBBBBBBBBBBBBBBBBBBBBBBBBBBBBBBBBBBBBBBBBBBBBBBBBBBBBBBBBBBBBBBA",
"BBBBBBBBBBBBBBBBBBBBBBBBBBBBBBBBBBBBBBBBBBBBBBBBBBBBBBBBBBBBBBBBBBBBBBBBBBBBBBBBBBBBBBBBBBBBBBBBBBBA",
"BBBBBBBBBBBBBBBBBBBBBBBBBBBBBBBBBBBBBBBBBBBBBBBBBBBBBBBBBBBBBBBBBBBBBBBBBBBBBBBBBBBBBBBBBBBBBBBBBBBA",
"BBBBBBBBBBBBBBBBBBBBBBBBBBBBBBBBBBBBBBBBBBBBBBBBBBBBBBBBBBBBBBBBBBBBBBBBBBBBBBBBBBBBBBBBBBBBBBBBBBBA",
"BBBBBBBBBBBBBBBBBBBBBBBBBBBBBBBBBBBBBBBBBBBBBBBBBBBBBBBBBBBBBBBBBBBBBBBBBBBBBBBBBBBBBBBBBBBBBBBBBBBA",
"BBBBBBBBBBBBBBBBBBBBBBBBBBBBBBBBBBBBBBBBBBBBBBBBBBBBBBBBBBBBBBBBBBBBBBBBBBBBBBBBBBBBBBBBBBBBBBBBBBBA",
"BBBBBBBBBBBBBBBBBBBBBBBBBBBBBBBBBBBBBBBBBBBBBBBBBBBBBBBBBBBBBBBBBBBBBBBBBBBBBBBBBBBBBBBBBBBBBBBBBBBA",
"BBBBBBBBBBBBBBBBBBBBBBBBBBBBBBBBBBBBBBBBBBBBBBBBBBBBBBBBBBBBBBBBBBBBBBBBBBBBBBBBAAAABBBBBBBBBBBBBBBA",
"BBBBBBBBBBBBBBBBBBBBBBBBBBBBBBBBBBBBBBBBBBBBBBBBBBBBBBBBBBBBBBBBBBBBBBBBBBBBBBBBAAAABBBBBBBBBBBBBBBA",
"BBBBBBBBBBBBBBBBBBBBBBBBBBBBBBBBBBBBBBBBBBBBBBBBBBBBBBBBBBBBBBBBBBBBBBBBBBBBBBBBAAAABBBBBBBBBBBBBBBA",
"BBBBBBBBBBBBBBBBBBBBBBBBBBBBBBBBBBBBBBBBBBBBBBBBBBBBBBBBBBBBBBBBBBBBBBBBBBBBBBBBAAAABBBBBBBBBBBBBBBA",
"BBBBBBBBBBBBBBBBBBBBBBBBBBBBBBBBBBBBBBBBBBBBBBBBBBBBBBBBBBBBBBBBBBBBBBBBBBBABBAAAAAAABBBBBBBBBBBBBBA",
"BBBBBBBBBBBBBBBBBBBBBBBBBBBBBBBBBBBBBBBBBBBBBBBBBBBBBBBBBBBBBBBBBBBBBBBBBBBABBAAAAAAABBBBBBBBBBBBBBA",
"BBBBBBBBBBBBBBBBBBBBBBBBBBBBBBBBBBBBBBBBBBBBBBBBBBBBBBBBBBBBBBBBBBBBBBBBBBAAAAAAAAAAABBBBBBBBBBBBBBA",
"BBBBBBBBBBBBBBBBBBBBBBBBBBBBBBBBBBBBBBBBBBBBBBBBBBAAAABBBBBBBBBBBBBBBBBBBBAAAAAAAAAAAAAAAABBBBBBBBBA",
"BBBBBBBBBBBBBBBAAABBBAABBBBBAABBBBBBBBBBBBBBBBBBBAAAAAABBBBBBBBBBBBBBBBBBBBBAAAAAAAAAAAAAABBBBBBBBBA",
"BBBBBBBBBBBBBBAAAAAAAAABAAAAAABBBBBBBBBBBBBBBBBBAAAAAAAABBBBBBBBBBBBBBBBBBAAAAAAAAAAAABBAABBBBBBBBBA",
"BBBBBBBBBBBBBBAAAAAAAAAAAAAAAABBBBBBBBBBBBBBBBBBAAAAAAAAAAAAAABBBBBBBBAAAAAAAAAAAAAAABBAAABBBBBBBBBA",
"BBBBBBBBBBBBBBABBAAAAAAAAABBBBBBBBBBBBBBBBBBBBBBAAAAAAAAAAAAAABBBBBBBBAAAAAAAAAAAAAAABBAAABBBBBBBBBA",
"BBBBBBBBBBBBBBABBAAAABBAAABBBBBBBBBBBBBBBBBBBBBBAAAAAAAAAAAAAABBBBBBBBAAAAAAAAAAAAAAABBAAABBBBBBBBBA",
"BBBBBBBBBBBBBBAAAAAAABBAAAAAAABBBBBBBBBBBBBBBBBBAAAAAAAAAAAAAABBBBBBBBAAAAAAAAAAAAAAABBAAABBBBBBBBBA",
"BBBBBBBBBBBBBBAAAAABAAAABAAAAABBBBBBBBBBBBBBBBBBBAABBBBBBBBBBBBBBBBBBBBBBBAAAAAAAAAAAABBAABBBBBBBBBA",
"BBBBBBBBBBBBBBAAAAABBBBBBAAAAABBBBBBBBBBBBBBBBBBBBBBBBBBBBBBBBBBBBBBBBBBBBBBAAAAAAAAAAAAAABBBBBBBBBA",
"BBBBBBBBBBBBBBAAAAAABBBBAAAAAABBBBBBBBBBBBBBBBBBBBBBBBBBBBBBBBBBBBBBBBBBBBAAAAAAAAAAAAAAAABBBBBBBBBA",
"BBBBBBBBBBBBBBAAAAAAAAAAAAAAAABBBBBBBBBBBBBBBBBBBBBBBBBBBBBBBBBBBBBBBBBBBBAAAAAAAAAAAABBBBBBBBBBBBBA",
"BBBBBBBBBBAAAAAAAAAAAAAAAAAAAABBBBBBBBBBBBBBBBBBBBBBBBBBBBBBBBBBBBBBBBBBBBBBBAAABBBAAABBBBBBBBBBBBBA",
"BBBBBBBBBBAAAAAAABBBBAABBBBAAABBBBBBBBBBBBBBBBBBBBBBBBBBBBBBBBBBBBBBBBBBBBBBBAAABBBAAABBBBBBBBBBBBBA",
"BBBBBBBBBBAAAAAAABBBBAABBBBAAABBBBBBBBBBBBBBBBBBBBBBBBBBBBBBBBBBBBBBBBBBBBBBBBBBBBBBBBBBBBBBBBBBBBBA",
"BBBBBBBBBBAAAAAAAAAAAAAAAAAAAABBBBBBBBBBBBBBBBBBBBBBBBBBBBBBBBBBBBBBBBBBBBBBBBBBBBBBBBBBBBBBBBBBBBBA",
"BBBBBBBBBBBBBBAAAAAAAAAAAAAAAABBBBBBBBBBBBBBBBBBBBBBBBBBBBBBBBBBBBBBBBBBBBBBBBBBBBBBBBBBBBBBBBBBBBBA",
"BBBBBBBBBBBBBBAAABBBBAABBBBAAABBBBBBBBBBBBBBBBBBBBBBBBBBBBBBBBBBBBBBBBBBBBBBBBBBBBBBBBBBBBBBBBBBBBBA",
"BBBBBBBBBBBBBBAAABBBBAABBBBAAABBBBBBBBBBBBBBBBBBBBBBBBBBBBBBBBBBBBBBBBBBBBBBBBBBBBBBBBBBBBBBBBBBBBBA",
"BBBBBBBBBBBBBBAAAAAAAAAAAAAAAABBBBBBBBBBBBBBBBBBBBBBBBBBBBBBBBBBBBBBBBBBBBBBBBBBBBBBBBBBBBBBBBBBBBBA",
"BBBBBBBBBBBBBBAAAAAAAAAAAAAAAABBBBBBBBBBBBBBBBBBBBBBBBBBBBBBBBBBBBBBBBBBBBBBBBBBBBBBBBBBBBBBBBBBBBBA",
"BBBBBBBBBBBBBBAAABBBBAABBBBAAABBBBBBBBBBBBBBBBBBBBBBBBBBBBBBBBBBBBBBBBBBBBBBBBBBBBBBBBBBBBBBBBBBBBBA",
"BBBBBBBBBBBBBBAAABBBBAABBBBAAABBBBBBBBBBBBBBBBBBBBBBBBBBBBBBBBBBBBBBBBBBBBBBBBBBBBBBBBBBBBBBBBBBBBBA",
"BBBBBBBBBBBBBBAAAAAAAAAAAAAABBBBBBBBBBBBBBBBBBBBBBBBBBBBBBBBBBBBBBBBBBBBBBBBBBBBBBBBBBBBBBBBBBBBBBBA",
"BBBBBBBBBBBBBBAAAAAAAAAAAAAABBBBBBBBBBBBBBBBBBBBBBBBBBBABBBBBBBBBBBBBBBBBBBBBBBBBBBBBBBBBBBBBBBBBBBA",
"BBBBBBBBBBBBBBAAAAAAAAAAAAAABBBBBBBBBBBBBBBBABBABBBBBBBABBBBBBBBBBBBBBBBBBBBBBBBBBBBBBBBBBBBBBBBBBBA",
"BBBBBBBBBBBBBBBBBBBBBBBBBBBBBBBBBBBBBBBBBBBBAAAAAAAAAAAABBBBBBBBBBBBBBBBBBBBBBBBBBBBBBBBBBBBBBBBBBBA",
"BBBBBBBBBBBBBBBBBBBBBBBBBBBBBBBBBBBBBBBBBBBBAAAAAABBAAAABBBBBBBBBBBBBBBBBBBBBBBBBBBBBBBBBBBBBBBBBBBA",
"BBBBBBBBBBBBBBBBBBBBBBBBBBBBBBBBBBBBBBBBBBBBAAAABBBBBBAAAAAAAABBBBBBBBBBBBBBBBBBBBBBBBBBBBBBBBBBBBBA",
"BBBBBBBBBBBBBBBBBBBBBBBBBBBBBBBBBBBBBBBBBBBBAAAABBBBBBAAAAAAAABBBBBBBBBBBBBBBBBBBBBBBBBBBBBBBBBBBBBA",
"BBBBBBBBBBBBBBBBBBBBBBBBBBBBBBBBBBBBBBBBBBBBAAAAAAAAAAAAAAAAAABBBBBBBBBBBBBBBBBBBBBBBBBBBBBBBBBBBBBA",
"BBBBBBBBBBBBBBBBBBBBBBBBBBBBBBBBBBBBBBBBBBBBAAAAAAAAAAAAAAAABBBBBBBBBBBBBBBBBBBBBBBBBBBBBBBBBBBBBBBA",
"BBBBBBBBBBBBBBBBBBBBBBBBBBBBBBBBBBBBBBBBBBBBAAAAAAAAAAAAAAAABBBBBBBBBBBBBBBBBBBBBBBBBBBBBBBBBBBBBBBA",
"BBBBBBBBBBBBBBBBBBBBBBBBBBBBBBBBBBBBBBBBBBBBAAAAAAAAAAAAAAAABBBBBBBBBBBBBBBBBBBBBBBBBBBBBBBBBBBBBBBA",
"BBBBBBBBBBBBBBBBBBBBBBBBBBBBBBBBBBBBBBBBBBBBBBBBAAAABBBBBBBBBBBBBBBBBBBBBBBBBBBBBBBBBBBBBBBBBBBBBBBA",
"BBBBBBBBBBBBBBBBBBBBBBBBBBBBBBBBBBBBBBBBBBBBBBBBAAAABBBBBBBBBBBBBBBBBBBBBBBBBBBBBBBBBBBBBBBBBBBBBBBA",
"BBBBBBBBBBBBBBBBBBBBBBBBBBBBBBBBBBBBBBBBBBBBBBBBBBBBBBBBBBBBBBBBBBBBBBBBBBBBBBBBBBBBBBBBBBBBBBBBBBBA",
"BBBBBBBBBBBBBBBBBBBBBBBBBBBBBBBBBBBBBBBBBBBBBBBBBBBBBBBBBBBBBBBBBBBBBBBBBBBBBBBBBBBBBBBBBBBBBBBBBBBA",
"BBBBBBBBBBBBBBBBBBBBBBBBBBBBBBBBBBBBBBBBBBBBBBBBBBBBBBBBBBBBBBBBBBBBBBBBBBBBBBBBBBBBBBBBBBBBBBBBBBBA",
"BBBBBBBBBBBBBBBBBBBBBBBBBBBBBBBBBBBBBBBBBBBBBBBBBBBBBBBBBBBBBBBBBBBBBBBBBBBBBBBBBBBBBBBBBBBBBBBBBBBA",
};
